<svg width="183" height="40" viewBox="0 0 183 40" fill="none" xmlns="http://www.w3.org/2000/svg">
<g clip-path="url(#clip0)">
<path d="M17.44 35.4C15.0933 35.4 12.9467 35.0133 11 34.24C9.05333 33.44 7.37333 32.3333 5.96 30.92C4.57333 29.48 3.49333 27.7867 2.72 25.84C1.94667 23.8667 1.56 21.7067 1.56 19.36C1.56 17.0133 1.94667 14.8667 2.72 12.92C3.49333 10.9733 4.57333 9.29333 5.96 7.88C7.37333 6.44 9.05333 5.33333 11 4.56C12.9467 3.76 15.0933 3.36 17.44 3.36C19.7867 3.36 21.92 3.76 23.84 4.56C25.7867 5.33333 27.4667 6.44 28.88 7.88C30.2933 9.29333 31.3867 10.9733 32.16 12.92C32.9333 14.8667 33.32 17.0133 33.32 19.36C33.32 21.7067 32.9333 23.8667 32.16 25.84C31.3867 27.7867 30.2933 29.48 28.88 30.92C27.4667 32.3333 25.7867 33.44 23.84 34.24C21.92 35.0133 19.7867 35.4 17.44 35.4ZM17.44 31.64C19.76 31.64 21.8133 31.1067 23.6 30.04C25.3867 28.9467 26.7867 27.48 27.8 25.64C28.8133 23.7733 29.32 21.68 29.32 19.36C29.32 17.04 28.8133 14.96 27.8 13.12C26.7867 11.2533 25.3867 9.78667 23.6 8.72C21.8133 7.65333 19.76 7.12 17.44 7.12C15.12 7.12 13.0667 7.65333 11.28 8.72C9.49333 9.78667 8.09333 11.2533 7.08 13.12C6.06667 14.96 5.56 17.04 5.56 19.36C5.56 21.68 6.06667 23.7733 7.08 25.64C8.09333 27.48 9.49333 28.9467 11.28 30.04C13.0667 31.1067 15.12 31.64 17.44 31.64Z" fill="#499167"/>
<path d="M40.7341 32.6676C40.3074 32.6676 39.9008 32.6009 39.5141 32.4676C39.1274 32.3342 38.7908 32.1476 38.5041 31.9076C38.2174 31.6676 38.0074 31.3909 37.8741 31.0776C37.8074 30.9376 37.8074 30.8076 37.8741 30.6876C37.9474 30.5676 38.0674 30.4909 38.2341 30.4576C38.3541 30.4309 38.4708 30.4509 38.5841 30.5176C38.7041 30.5776 38.7941 30.6709 38.8541 30.7976C38.9341 30.9642 39.0641 31.1176 39.2441 31.2576C39.4308 31.3976 39.6541 31.5109 39.9141 31.5976C40.1741 31.6842 40.4474 31.7276 40.7341 31.7276C41.0541 31.7276 41.3474 31.6776 41.6141 31.5776C41.8874 31.4776 42.1074 31.3342 42.2741 31.1476C42.4408 30.9542 42.5241 30.7176 42.5241 30.4376C42.5241 30.0842 42.3841 29.7676 42.1041 29.4876C41.8308 29.2076 41.3774 29.0342 40.7441 28.9676C39.9174 28.8876 39.2674 28.6442 38.7941 28.2376C38.3208 27.8309 38.0841 27.3276 38.0841 26.7276C38.0841 26.2876 38.2074 25.9142 38.4541 25.6076C38.7008 25.3009 39.0341 25.0676 39.4541 24.9076C39.8808 24.7476 40.3541 24.6676 40.8741 24.6676C41.4808 24.6676 41.9774 24.7909 42.3641 25.0376C42.7508 25.2842 43.0708 25.6109 43.3241 26.0176C43.4174 26.1642 43.4541 26.3042 43.4341 26.4376C43.4208 26.5642 43.3574 26.6642 43.2441 26.7376C43.1174 26.8176 42.9808 26.8342 42.8341 26.7876C42.6874 26.7409 42.5774 26.6542 42.5041 26.5276C42.3374 26.2409 42.1208 26.0176 41.8541 25.8576C41.5941 25.6976 41.2574 25.6142 40.8441 25.6076C40.3508 25.6009 39.9374 25.6942 39.6041 25.8876C39.2708 26.0742 39.1041 26.3642 39.1041 26.7576C39.1041 26.9576 39.1541 27.1509 39.2541 27.3376C39.3608 27.5176 39.5508 27.6742 39.8241 27.8076C40.1041 27.9409 40.5041 28.0342 41.0241 28.0876C41.8174 28.1676 42.4341 28.4109 42.8741 28.8176C43.3208 29.2176 43.5441 29.7476 43.5441 30.4076C43.5441 30.7876 43.4641 31.1176 43.3041 31.3976C43.1508 31.6776 42.9408 31.9142 42.6741 32.1076C42.4141 32.2942 42.1141 32.4342 41.7741 32.5276C41.4408 32.6209 41.0941 32.6676 40.7341 32.6676ZM48.4089 32.6076C47.8555 32.6076 47.3622 32.4909 46.9289 32.2576C46.5022 32.0176 46.1655 31.6909 45.9189 31.2776C45.6789 30.8576 45.5589 30.3776 45.5589 29.8376C45.5589 29.2909 45.6722 28.8109 45.8989 28.3976C46.1322 27.9776 46.4522 27.6509 46.8589 27.4176C47.2655 27.1776 47.7322 27.0576 48.2589 27.0576C48.7789 27.0576 49.2255 27.1742 49.5989 27.4076C49.9722 27.6342 50.2555 27.9509 50.4489 28.3576C50.6489 28.7576 50.7489 29.2209 50.7489 29.7476C50.7489 29.8742 50.7055 29.9809 50.6189 30.0676C50.5322 30.1476 50.4222 30.1876 50.2889 30.1876H46.4889C46.5622 30.6476 46.7722 31.0242 47.1189 31.3176C47.4722 31.6042 47.9022 31.7476 48.4089 31.7476C48.6155 31.7476 48.8255 31.7109 49.0389 31.6376C49.2589 31.5576 49.4355 31.4676 49.5689 31.3676C49.6689 31.2942 49.7755 31.2576 49.8889 31.2576C50.0089 31.2509 50.1122 31.2842 50.1989 31.3576C50.3122 31.4576 50.3722 31.5676 50.3789 31.6876C50.3855 31.8076 50.3322 31.9109 50.2189 31.9976C49.9922 32.1776 49.7089 32.3242 49.3689 32.4376C49.0355 32.5509 48.7155 32.6076 48.4089 32.6076ZM48.2589 27.9176C47.7655 27.9176 47.3689 28.0542 47.0689 28.3276C46.7689 28.6009 46.5789 28.9542 46.4989 29.3876H49.8289C49.7689 28.9609 49.6055 28.6109 49.3389 28.3376C49.0722 28.0576 48.7122 27.9176 48.2589 27.9176ZM54.1498 32.5676C53.8565 32.5676 53.5965 32.4876 53.3698 32.3276C53.1431 32.1676 52.9665 31.9509 52.8398 31.6776C52.7131 31.3976 52.6498 31.0776 52.6498 30.7176V25.2576C52.6498 25.1109 52.6965 24.9909 52.7898 24.8976C52.8831 24.8042 53.0031 24.7576 53.1498 24.7576C53.2965 24.7576 53.4165 24.8042 53.5098 24.8976C53.6031 24.9909 53.6498 25.1109 53.6498 25.2576V30.7176C53.6498 30.9642 53.6965 31.1676 53.7898 31.3276C53.8831 31.4876 54.0031 31.5676 54.1498 31.5676H54.3998C54.5331 31.5676 54.6398 31.6142 54.7198 31.7076C54.8065 31.8009 54.8498 31.9209 54.8498 32.0676C54.8498 32.2142 54.7865 32.3342 54.6598 32.4276C54.5331 32.5209 54.3698 32.5676 54.1698 32.5676H54.1498ZM57.9479 32.5676C57.6545 32.5676 57.3945 32.4876 57.1679 32.3276C56.9412 32.1676 56.7645 31.9509 56.6379 31.6776C56.5112 31.3976 56.4479 31.0776 56.4479 30.7176V25.2576C56.4479 25.1109 56.4945 24.9909 56.5879 24.8976C56.6812 24.8042 56.8012 24.7576 56.9479 24.7576C57.0945 24.7576 57.2145 24.8042 57.3079 24.8976C57.4012 24.9909 57.4479 25.1109 57.4479 25.2576V30.7176C57.4479 30.9642 57.4945 31.1676 57.5879 31.3276C57.6812 31.4876 57.8012 31.5676 57.9479 31.5676H58.1979C58.3312 31.5676 58.4379 31.6142 58.5179 31.7076C58.6045 31.8009 58.6479 31.9209 58.6479 32.0676C58.6479 32.2142 58.5845 32.3342 58.4579 32.4276C58.3312 32.5209 58.1679 32.5676 57.9679 32.5676H57.9479Z" fill="black"/>
<path d="M39.0032 15C38.8565 15 38.7332 14.95 38.6332 14.85C38.5332 14.75 38.4832 14.6267 38.4832 14.48V7.71C38.4832 7.55667 38.5332 7.43333 38.6332 7.34C38.7332 7.24 38.8565 7.19 39.0032 7.19H41.3932C41.8465 7.19 42.2432 7.28 42.5832 7.46C42.9299 7.63333 43.1999 7.87667 43.3932 8.19C43.5932 8.50333 43.6932 8.86333 43.6932 9.27C43.6932 9.59667 43.6032 9.89333 43.4232 10.16C43.2499 10.42 43.0099 10.6267 42.7032 10.78C43.1432 10.8867 43.4965 11.0967 43.7632 11.41C44.0299 11.7233 44.1632 12.1333 44.1632 12.64C44.1632 13.1 44.0532 13.5067 43.8332 13.86C43.6199 14.2133 43.3199 14.4933 42.9332 14.7C42.5465 14.9 42.1032 15 41.6032 15H39.0032ZM39.5232 10.4H41.3932C41.7732 10.4 42.0832 10.3067 42.3232 10.12C42.5699 9.93333 42.6932 9.65 42.6932 9.27C42.6932 8.89 42.5699 8.61 42.3232 8.43C42.0832 8.24333 41.7732 8.15 41.3932 8.15H39.5232V10.4ZM39.5232 14.04H41.6032C42.0565 14.04 42.4299 13.9233 42.7232 13.69C43.0165 13.45 43.1632 13.1 43.1632 12.64C43.1632 12.2133 43.0165 11.8933 42.7232 11.68C42.4299 11.4667 42.0565 11.36 41.6032 11.36H39.5232V14.04ZM48.7098 15.05C48.2498 15.05 47.8364 14.9533 47.4698 14.76C47.1098 14.56 46.8231 14.27 46.6098 13.89C46.4031 13.51 46.2998 13.0433 46.2998 12.49V10.03C46.2998 9.88333 46.3464 9.76333 46.4398 9.67C46.5398 9.57 46.6631 9.52 46.8098 9.52C46.9564 9.52 47.0764 9.57 47.1698 9.67C47.2698 9.76333 47.3198 9.88333 47.3198 10.03V12.49C47.3198 13.0567 47.4698 13.4733 47.7698 13.74C48.0764 14 48.4564 14.13 48.9098 14.13C49.1964 14.13 49.4498 14.0733 49.6698 13.96C49.8964 13.8467 50.0764 13.6933 50.2098 13.5C50.3431 13.3067 50.4098 13.09 50.4098 12.85V10.03C50.4098 9.87667 50.4564 9.75333 50.5498 9.66C50.6498 9.56667 50.7731 9.52 50.9198 9.52C51.0731 9.52 51.1964 9.56667 51.2898 9.66C51.3831 9.75333 51.4298 9.87667 51.4298 10.03V14.49C51.4298 14.6367 51.3831 14.76 51.2898 14.86C51.1964 14.9533 51.0731 15 50.9198 15C50.7731 15 50.6498 14.9533 50.5498 14.86C50.4564 14.76 50.4098 14.6367 50.4098 14.49V14.38C50.2031 14.5867 49.9531 14.75 49.6598 14.87C49.3664 14.99 49.0498 15.05 48.7098 15.05ZM55.0062 17.4C54.9395 17.4 54.8595 17.38 54.7662 17.34C54.4728 17.2067 54.3928 16.9967 54.5262 16.71L55.5262 14.46L53.2762 10.19C53.2095 10.0633 53.1995 9.94333 53.2462 9.83C53.2995 9.71 53.3895 9.62333 53.5162 9.57C53.6428 9.51667 53.7628 9.51333 53.8762 9.56C53.9895 9.6 54.0762 9.68333 54.1362 9.81L55.9662 13.45L57.5762 9.82C57.7095 9.54 57.9195 9.46 58.2062 9.58C58.5062 9.70667 58.5895 9.91667 58.4562 10.21L55.3962 17.09C55.3162 17.2967 55.1862 17.4 55.0062 17.4Z" fill="black"/>
<path d="M46.5215 23.5584C45.9515 23.5584 45.4895 23.4024 45.1355 23.0904C44.7875 22.7784 44.6135 22.3494 44.6135 21.8034C44.6135 21.3954 44.7515 21.0264 45.0275 20.6964C45.3035 20.3664 45.6665 20.0214 46.1165 19.6614L46.1705 19.6254L45.7025 19.1574C45.4985 18.9474 45.3425 18.7284 45.2345 18.5004C45.1265 18.2664 45.0725 18.0204 45.0725 17.7624C45.0725 17.4744 45.1445 17.2164 45.2885 16.9884C45.4325 16.7544 45.6305 16.5714 45.8825 16.4394C46.1345 16.3074 46.4165 16.2414 46.7285 16.2414C47.0525 16.2414 47.3375 16.3104 47.5835 16.4484C47.8355 16.5864 48.0335 16.7754 48.1775 17.0154C48.3215 17.2554 48.3935 17.5254 48.3935 17.8254C48.3935 18.0594 48.3515 18.2724 48.2675 18.4644C48.1895 18.6564 48.0665 18.8454 47.8985 19.0314C47.7305 19.2114 47.5145 19.4064 47.2505 19.6164L48.8705 21.2364L49.5905 20.4714C49.6805 20.3754 49.7645 20.3154 49.8425 20.2914C49.9205 20.2674 50.0075 20.3004 50.1035 20.3904C50.2955 20.5764 50.3015 20.7684 50.1215 20.9664L49.3835 21.7494L50.3825 22.7484C50.4785 22.8444 50.5325 22.9344 50.5445 23.0184C50.5565 23.1024 50.5145 23.1924 50.4185 23.2884C50.2265 23.4804 50.0345 23.4804 49.8425 23.2884L48.8525 22.2984L48.8075 22.3524C48.4955 22.7064 48.1565 22.9974 47.7905 23.2254C47.4245 23.4474 47.0015 23.5584 46.5215 23.5584ZM46.2875 18.6624L46.7645 19.1394L46.8635 19.0674C47.1815 18.8154 47.3855 18.5934 47.4755 18.4014C47.5655 18.2094 47.6135 18.0114 47.6195 17.8074C47.6195 17.5794 47.5415 17.3814 47.3855 17.2134C47.2355 17.0454 47.0165 16.9614 46.7285 16.9614C46.4645 16.9614 46.2515 17.0394 46.0895 17.1954C45.9275 17.3514 45.8465 17.5344 45.8465 17.7444C45.8465 17.9004 45.8795 18.0534 45.9455 18.2034C46.0175 18.3534 46.1315 18.5064 46.2875 18.6624ZM45.4595 21.7674C45.4595 22.1034 45.5525 22.3584 45.7385 22.5324C45.9245 22.7004 46.1855 22.7844 46.5215 22.7844C46.8815 22.7844 47.1935 22.7034 47.4575 22.5414C47.7275 22.3734 48.0005 22.1454 48.2765 21.8574L48.3395 21.7854L46.6475 20.1024L46.5305 20.1924C46.2185 20.4384 45.9605 20.6904 45.7565 20.9484C45.5585 21.2004 45.4595 21.4734 45.4595 21.7674Z" fill="black"/>
</g>
<path d="M80.1846 30.2844C78.5348 30.2844 77.0177 30 75.6334 29.4311C74.2491 28.8622 73.045 28.0658 72.021 27.0418C71.016 26.0178 70.229 24.8136 69.6601 23.4293C69.1102 22.045 68.8352 20.528 68.8352 18.8782C68.8352 17.2474 69.1102 15.7399 69.6601 14.3556C70.229 12.9713 71.016 11.7671 72.021 10.7431C73.045 9.71911 74.2491 8.92266 75.6334 8.35378C77.0177 7.78489 78.5348 7.50044 80.1846 7.50044C81.8154 7.50044 83.3229 7.78489 84.7072 8.35378C86.0915 8.92266 87.2957 9.71911 88.3197 10.7431C89.3437 11.7671 90.1306 12.9713 90.6806 14.3556C91.2494 15.7399 91.5339 17.2474 91.5339 18.8782C91.5339 20.528 91.2494 22.045 90.6806 23.4293C90.1306 24.8136 89.3437 26.0178 88.3197 27.0418C87.2957 28.0658 86.0915 28.8622 84.7072 29.4311C83.3229 30 81.8154 30.2844 80.1846 30.2844ZM80.1846 28.1796C81.493 28.1796 82.7066 27.952 83.8254 27.4969C84.9443 27.0228 85.9114 26.3686 86.7268 25.5342C87.5611 24.6809 88.2059 23.6948 88.661 22.576C89.1161 21.4382 89.3437 20.2056 89.3437 18.8782C89.3437 17.5698 89.1161 16.3561 88.661 15.2373C88.2059 14.0996 87.5611 13.1135 86.7268 12.2791C85.9114 11.4258 84.9443 10.7716 83.8254 10.3164C82.7066 9.84237 81.493 9.60533 80.1846 9.60533C78.8571 9.60533 77.634 9.84237 76.5152 10.3164C75.3964 10.7716 74.4198 11.4258 73.5854 12.2791C72.77 13.1135 72.1348 14.0996 71.6797 15.2373C71.2246 16.3561 70.997 17.5698 70.997 18.8782C70.997 20.2056 71.2246 21.4382 71.6797 22.576C72.1348 23.6948 72.77 24.6809 73.5854 25.5342C74.4198 26.3686 75.3964 27.0228 76.5152 27.4969C77.634 27.952 78.8571 28.1796 80.1846 28.1796ZM96.4803 30C96.158 30 95.8925 29.9052 95.6839 29.7156C95.4943 29.507 95.3994 29.2415 95.3994 28.9191V8.86578C95.3994 8.5434 95.4943 8.2874 95.6839 8.09777C95.8925 7.88918 96.158 7.78489 96.4803 7.78489C96.8027 7.78489 97.0587 7.88918 97.2483 8.09777C97.4569 8.2874 97.5612 8.5434 97.5612 8.86578V21.808L105.583 14.5547C106.076 14.1185 106.54 14.1375 106.976 14.6116C107.185 14.8391 107.28 15.0856 107.261 15.3511C107.261 15.5976 107.147 15.8157 106.919 16.0053L101.231 21.1538L107.147 28.4356C107.564 28.9476 107.517 29.4216 107.005 29.8578C106.758 30.0664 106.502 30.1517 106.237 30.1138C105.971 30.0948 105.744 29.9621 105.554 29.7156L99.6946 22.5191L97.5612 24.4818V28.9191C97.5612 29.2415 97.4569 29.507 97.2483 29.7156C97.0587 29.9052 96.8027 30 96.4803 30ZM116.689 30.1422C115.229 30.1422 113.92 29.8009 112.764 29.1182C111.607 28.4166 110.687 27.4684 110.005 26.2738C109.341 25.0791 109.009 23.7327 109.009 22.2347C109.009 20.7176 109.35 19.3618 110.033 18.1671C110.735 16.9724 111.683 16.0338 112.877 15.3511C114.072 14.6495 115.418 14.2987 116.917 14.2987C118.415 14.2987 119.752 14.6495 120.927 15.3511C122.122 16.0338 123.061 16.9724 123.743 18.1671C124.445 19.3618 124.805 20.7176 124.824 22.2347V28.9191C124.824 29.2415 124.72 29.507 124.511 29.7156C124.303 29.9052 124.037 30 123.715 30C123.392 30 123.127 29.9052 122.918 29.7156C122.71 29.507 122.605 29.2415 122.605 28.9191V27.184C121.961 28.0942 121.126 28.8148 120.102 29.3458C119.078 29.8767 117.941 30.1422 116.689 30.1422ZM116.917 28.1511C118.016 28.1511 118.993 27.8951 119.846 27.3831C120.719 26.8711 121.401 26.1695 121.894 25.2782C122.406 24.368 122.662 23.3535 122.662 22.2347C122.662 21.0969 122.406 20.0824 121.894 19.1911C121.401 18.2999 120.719 17.5982 119.846 17.0862C118.993 16.5553 118.016 16.2898 116.917 16.2898C115.836 16.2898 114.859 16.5553 113.987 17.0862C113.114 17.5982 112.422 18.2999 111.91 19.1911C111.398 20.0824 111.142 21.0969 111.142 22.2347C111.142 23.3535 111.398 24.368 111.91 25.2782C112.422 26.1695 113.114 26.8711 113.987 27.3831C114.859 27.8951 115.836 28.1511 116.917 28.1511ZM128.942 30C128.278 30 127.946 29.6681 127.946 29.0044C127.946 28.6821 128.022 28.445 128.174 28.2933L137.475 16.432H128.828C128.164 16.432 127.832 16.1001 127.832 15.4364C127.832 14.7727 128.164 14.4409 128.828 14.4409H139.381C140.044 14.4409 140.376 14.7727 140.376 15.4364C140.376 15.7209 140.319 15.939 140.206 16.0907L130.904 28.0089H139.495C140.158 28.0089 140.49 28.3407 140.49 29.0044C140.49 29.6681 140.158 30 139.495 30H128.942ZM145.406 30C145.065 30 144.79 29.9052 144.581 29.7156C144.392 29.507 144.297 29.232 144.297 28.8907V15.5502C144.297 15.2089 144.392 14.9434 144.581 14.7538C144.79 14.5452 145.065 14.4409 145.406 14.4409C145.728 14.4409 145.984 14.5452 146.174 14.7538C146.383 14.9434 146.487 15.2089 146.487 15.5502V28.8907C146.487 29.232 146.383 29.507 146.174 29.7156C145.984 29.9052 145.728 30 145.406 30ZM145.378 11.4827C144.96 11.4827 144.6 11.331 144.297 11.0276C143.993 10.7241 143.842 10.3544 143.842 9.91822C143.842 9.44415 143.993 9.07437 144.297 8.80889C144.619 8.52444 144.989 8.38222 145.406 8.38222C145.804 8.38222 146.155 8.52444 146.459 8.80889C146.781 9.07437 146.942 9.44415 146.942 9.91822C146.942 10.3544 146.79 10.7241 146.487 11.0276C146.184 11.331 145.814 11.4827 145.378 11.4827ZM154.311 36.7698C154.159 36.7698 153.989 36.7319 153.799 36.656C153.154 36.3716 152.974 35.9164 153.259 35.2907L156.103 29.0613L156.075 29.0329L149.731 15.8916C149.599 15.6071 149.58 15.3416 149.675 15.0951C149.769 14.8486 149.959 14.659 150.243 14.5262C150.869 14.2418 151.324 14.403 151.609 15.0098L157.155 26.7004L162.446 15.0382C162.731 14.4314 163.186 14.2607 163.811 14.5262C164.456 14.7917 164.636 15.2373 164.352 15.8631L155.136 36.1156C154.946 36.5517 154.671 36.7698 154.311 36.7698ZM173.321 30.1422C171.804 30.1422 170.448 29.8009 169.253 29.1182C168.059 28.4356 167.12 27.4969 166.437 26.3022C165.755 25.1076 165.413 23.7517 165.413 22.2347C165.413 20.6987 165.755 19.3333 166.437 18.1387C167.12 16.944 168.059 16.0053 169.253 15.3227C170.448 14.64 171.804 14.2987 173.321 14.2987C174.838 14.2987 176.184 14.64 177.36 15.3227C178.555 16.0053 179.493 16.944 180.176 18.1387C180.859 19.3333 181.21 20.6987 181.229 22.2347C181.229 23.7517 180.878 25.1076 180.176 26.3022C179.493 27.4969 178.555 28.4356 177.36 29.1182C176.184 29.8009 174.838 30.1422 173.321 30.1422ZM173.321 28.1511C174.421 28.1511 175.407 27.8951 176.279 27.3831C177.152 26.8711 177.834 26.1695 178.327 25.2782C178.82 24.387 179.067 23.3724 179.067 22.2347C179.067 21.0969 178.82 20.0824 178.327 19.1911C177.834 18.2809 177.152 17.5698 176.279 17.0578C175.407 16.5458 174.421 16.2898 173.321 16.2898C172.221 16.2898 171.235 16.5458 170.363 17.0578C169.49 17.5698 168.798 18.2809 168.286 19.1911C167.793 20.0824 167.547 21.0969 167.547 22.2347C167.547 23.3724 167.793 24.387 168.286 25.2782C168.798 26.1695 169.49 26.8711 170.363 27.3831C171.235 27.8951 172.221 28.1511 173.321 28.1511Z" fill="black"/>
<defs>
<clipPath id="clip0">
<rect width="96" height="40" fill="white"/>
</clipPath>
</defs>
</svg>
